<?xml version="1.0" encoding="UTF-8"?>
<svg id="Layer_1" data-name="Layer 1" xmlns="http://www.w3.org/2000/svg" viewBox="0 0 950 950">
  <defs>
    <style>
      .cls-1, .cls-2 {
        fill: #1e3278;
      }

      .cls-3 {
        fill: #e01b22;
      }

      .cls-3, .cls-2 {
        fill-rule: evenodd;
      }
    </style>
  </defs>
  <polygon class="cls-2" points="620.23 558.81 677.87 283.99 893.21 283.99 878.8 352.7 771.1 352.7 763.91 387.06 855.51 387.06 841.12 455.77 749.5 455.77 742.3 490.11 850 490.11 835.59 558.81 620.23 558.81"/>
  <g>
    <path class="cls-3" d="m17.11,558.81c191.53-91.6,450.7-150,687.12-171.76,63.86-5.88,127.15-9.16,215.23-9.16,3.44,0,9.16-1.14,13.74-2.29l-17.77,84.75c-.96,4.57-8.58,6.86-14.3,6.86-540.09,0-863.41,91.61-863.41,91.61h-20.62Z"/>
    <polygon class="cls-2" points="307.14 558.81 364.75 284 467.84 284 529.14 408.81 555.3 284 658.36 283.99 600.75 558.81 497.69 558.81 437.35 429.42 410.23 558.81 307.14 558.81"/>
    <path class="cls-2" d="m208.63,444.31l33.6-160.32h103.06l-40.33,192.37c-12.48,59.55-58.83,82.45-120.34,82.45h-75.91l17.28-82.45h34.37c25.19,0,43.46-9.16,48.27-32.05"/>
    <polygon class="cls-1" points="539.07 650.07 541.25 635.47 564.16 635.47 566.23 620.04 543.35 620.04 544.92 608.47 568.59 608.47 570.66 593.05 533.87 593.05 524.11 665.49 562.65 665.49 564.76 650.07 539.07 650.07"/>
    <path class="cls-1" d="m620.12,593.05h-15.98l-7.54,13.2c-1.14,2.02-2.46,4.42-3.96,7.22-1.17-3.74-1.82-5.8-1.94-6.23l-4.77-14.2h-13.67l11.55,35.58-20.75,36.86h16.32l6.67-11.66c1.53-2.72,2.79-4.98,3.78-6.83.57,1.92,1.26,4.18,2.09,6.78l3.76,11.71h14.48l-11.48-34.2,21.46-38.24Z"/>
    <path class="cls-1" d="m656.93,612.23c0-3.97-.6-7.47-1.77-10.39-1.24-3.07-2.99-5.34-5.21-6.73-2.17-1.36-5.07-2.05-8.64-2.05h-19.71l-9.79,72.44h13.12l3.53-26.1h4.08c4.1,0,6.86-.17,8.44-.51,2.71-.59,4.92-1.47,6.57-2.62,1.65-1.16,3.2-2.85,4.59-5.02,1.38-2.15,2.5-4.9,3.43-8.41.9-3.42,1.36-6.99,1.36-10.6m-24.28-3.94h4.78c3.79,0,4.64.41,4.73.46.48.27.86.72,1.15,1.39.36.8.54,1.9.54,3.25,0,2.16-.41,4.17-1.21,5.95-.76,1.68-1.73,2.85-2.98,3.58-.73.42-2.82,1.13-8.62,1.13h-.52l2.15-15.77Z"/>
    <path class="cls-1" d="m691.69,640.09c-.66-1.69-1.33-3.17-2.04-4.46,3.79-1.32,6.75-3.75,8.82-7.23,2.42-4.07,3.65-9.26,3.65-15.42,0-4.31-.63-8.06-1.87-11.16-1.33-3.28-3.15-5.6-5.41-6.89-2.21-1.26-5.11-1.87-8.87-1.87h-21.37l-9.79,72.44h13.13l3.83-28.34h1.97c2.15,0,2.87.51,3.06.71.81.89,2.09,3.01,3.52,8.1,2.26,8.09,3.8,14.12,4.58,17.93l.33,1.6h13.96l-.64-2.48c-2.5-9.8-4.81-17.51-6.85-22.92m-16.07-31.61h8.27c3.15,0,3.84.57,3.84.57h0c.89.85,1.34,2.25,1.34,4.16,0,1.81-.39,3.57-1.17,5.22-.73,1.57-1.69,2.66-2.93,3.36-.73.41-2.83,1.09-8.74,1.09h-2.55l1.93-14.41Z"/>
    <polygon class="cls-1" points="741.62 635.47 743.69 620.04 720.81 620.04 722.38 608.47 746.05 608.47 748.12 593.05 711.34 593.05 701.57 665.49 740.11 665.49 742.22 650.07 716.53 650.07 718.71 635.47 741.62 635.47"/>
    <path class="cls-1" d="m769.07,607.03c1.93,0,3.26.58,4.19,1.82,1.07,1.42,1.7,3.59,1.9,6.46l.13,2,12.65-.89-.09-1.94c-.3-6.65-2.01-12.08-5.09-16.15-3.23-4.27-7.81-6.44-13.63-6.44s-10.25,2.2-13.32,6.54c-2.92,4.13-4.4,9.33-4.4,15.49,0,3.52.5,6.66,1.48,9.33,1,2.73,2.41,5,4.2,6.74,1.68,1.64,4.23,3.6,7.79,6,4.22,2.83,5.44,4.06,5.82,4.56.81,1.05,1.21,2.33,1.21,3.91,0,1.89-.51,3.43-1.55,4.73-.94,1.17-2.54,1.73-4.9,1.73-3.75,0-4.99-1.48-5.61-2.62-.37-.67-1.02-2.58-1.17-7.73l-.06-2.1-12.55,1.01-.03,1.81c-.08,4.78.49,9.07,1.7,12.79,1.27,3.92,3.51,7.03,6.63,9.25,3.12,2.22,6.83,3.34,11.03,3.34,6.15,0,11.03-2.44,14.5-7.25,3.32-4.6,5-10.2,5-16.64,0-5.27-1.16-9.67-3.43-13.1-1.56-2.36-4.92-5.25-10.27-8.82-3.95-2.66-5.48-4.14-6.08-4.93-.71-.93-1.06-2.12-1.06-3.64,0-1.64.39-2.94,1.19-3.95.67-.86,1.96-1.29,3.81-1.29"/>
    <path class="cls-1" d="m813.8,620.85c-3.96-2.66-5.48-4.14-6.08-4.93-.72-.93-1.07-2.12-1.07-3.64,0-1.64.39-2.94,1.19-3.95.67-.86,1.95-1.29,3.82-1.29s3.26.58,4.19,1.82c1.07,1.42,1.71,3.59,1.9,6.46l.14,2,12.64-.89-.09-1.94c-.3-6.65-2.02-12.08-5.09-16.15-3.23-4.27-7.81-6.44-13.63-6.44s-10.25,2.2-13.32,6.54c-2.93,4.12-4.41,9.33-4.41,15.48,0,3.52.5,6.66,1.48,9.33,1,2.73,2.41,5,4.2,6.74,1.68,1.64,4.23,3.6,7.79,6,4.22,2.83,5.45,4.06,5.82,4.56.81,1.05,1.2,2.33,1.2,3.91,0,1.88-.51,3.43-1.55,4.73-.94,1.17-2.54,1.73-4.9,1.73-3.75,0-5-1.48-5.61-2.62-.38-.67-1.03-2.58-1.17-7.73l-.07-2.1-12.55,1.01-.03,1.81c-.08,4.78.49,9.07,1.7,12.79,1.27,3.92,3.5,7.03,6.63,9.25,3.12,2.22,6.83,3.34,11.03,3.34,6.15,0,11.03-2.44,14.5-7.25,3.32-4.6,5-10.2,5-16.64,0-5.27-1.15-9.67-3.43-13.1-1.55-2.36-4.91-5.25-10.26-8.82"/>
  </g>
</svg>