<?xml version="1.0" encoding="utf-8"?>
<!-- Generator: Adobe Illustrator 26.0.3, SVG Export Plug-In . SVG Version: 6.00 Build 0)  -->
<svg version="1.0" id="katman_1" xmlns="http://www.w3.org/2000/svg" xmlns:xlink="http://www.w3.org/1999/xlink" x="0px" y="0px"
	 viewBox="0 0 179 130.7" style="enable-background:new 0 0 179 130.7;" xml:space="preserve">
<style type="text/css">
	.st0{fill:#00AA13;}
	.st1{fill:#FFFFFF;}
</style>
<g id="logo_x2F_32_x2F_text_x2F_color_x2F_gosend">
	<g id="Group" transform="translate(-0.000000, 2.056245)">
		<circle id="Oval" class="st0" cx="34.8" cy="63.9" r="12.8"/>
		<path id="Path" class="st1" d="M41.6,60.9c0-0.5-0.3-1-0.7-1.3c-0.4-0.3-0.8-0.6-1.2-0.8c-1.7,0.8-3.8,1.9-5.6,2.8
			c-0.6,0.3-1,0.9-1,1.6c0,0.9,0,1.7,0,2.6l-1.3-2.2l-1.3,0.9c0-0.8,0-1.7,0.1-2.5c0-0.7,0.4-1.2,1-1.6c1.8-1,4.1-2.1,5.8-3
			c-0.6-0.3-1.2-0.6-1.8-0.9c-0.4-0.2-0.9-0.2-1.3,0c-1.9,0.8-3.7,1.8-5.4,2.9c-0.4,0.3-0.7,0.7-0.7,1.2c-0.2,1.9-0.2,3.8-0.1,5.7
			c0,0.5,0.2,0.9,0.6,1.2c1.6,1.4,3.5,2.6,5.4,3.6c0.5,0.2,1,0.2,1.5,0c1.9-1,3.8-2.1,5.5-3.4c0.4-0.3,0.6-0.7,0.7-1.2
			C41.8,64.7,41.8,62.8,41.6,60.9z"/>
		<path id="Shape" d="M57.7,70.3c1.1,1.5,2.9,2.4,4.8,2.3c2.2,0,3.9-1.4,3.9-3.4v-1h-0.1c-1.2,1.2-2.9,1.8-4.6,1.7
			c-2.7,0.1-5.2-1.3-6.6-3.6s-1.4-5.2-0.1-7.5s3.8-3.8,6.5-3.7c1.7-0.1,3.4,0.5,4.7,1.7h0.1v-1.4h3.8v13.9c0,4-3.2,6.8-7.7,6.8
			c-2.9,0.2-5.8-1.1-7.6-3.4L57.7,70.3z M66.2,61.6c0-1.6-1.8-3.1-3.9-3.1c-2.6,0-4.3,1.6-4.3,3.9c-0.1,1.1,0.3,2.2,1.1,3
			c0.8,0.8,1.9,1.2,3,1c2.2,0,4-1.4,4-3.1V61.6z M80.1,54.9c4.6,0,8,3.3,8,7.5s-3.4,7.5-8,7.5c-2.8,0.2-5.5-1.2-6.9-3.6
			c-1.5-2.4-1.5-5.4,0-7.8C74.7,56.1,77.3,54.7,80.1,54.9z M80.1,58.4c-2.2,0-4,1.8-4,4c0,2.2,1.8,4,4,4c2.2,0,4-1.8,4-4
			c0.1-1.1-0.4-2.1-1.1-2.9C82.3,58.8,81.2,58.4,80.1,58.4z M93,64.1c0.6,1.8,2,2.7,4.3,2.7c2.1,0,3.3-0.5,3.3-1.2
			c0-0.8-0.9-1.2-3.5-1.6c-5.2-0.8-7.1-2.1-7.1-4.6c0-2.6,2.6-4.4,6.6-4.4c3.6,0,6.8,1.8,7.6,4.3l-3.6,1.1c-0.7-1.5-2.3-2.4-4-2.2
			c-1.6,0-2.7,0.5-2.7,1.2c0,0.8,0.8,1,3.9,1.6c4.8,0.8,6.7,2.1,6.7,4.6c0,2.7-2.9,4.4-7.1,4.4c-1.9,0.1-3.7-0.4-5.3-1.4
			c-1.4-0.8-2.3-2.1-2.7-3.7L93,64.1z M113.4,54.9c2.1-0.1,4.1,0.7,5.6,2.1s2.3,3.5,2.2,5.5v1.1h-11.6c0.1,1.9,1.7,3,4,3
			c1.7,0,3.3-0.8,4.4-2.1l2.5,2.5c-1.7,1.9-4.2,3-6.8,2.9c-5,0-8-3-8-7.5c0-2,0.8-4,2.2-5.5C109.3,55.6,111.3,54.8,113.4,54.9z
			 M117.3,60.9c-0.2-1.7-1.7-2.8-3.8-2.8c-2.2,0-3.6,1.1-3.8,2.8H117.3z M123.2,55.3h3.8v1.3h0.1c1.3-1.2,3-1.8,4.8-1.7
			c4,0,6.8,2.7,6.8,6.5v8.1h-4V62c0-2.2-1.4-3.5-3.7-3.5c-1-0.1-2,0.2-2.7,0.9c-0.7,0.7-1.2,1.6-1.2,2.6v7.6h-4V55.3z M148.3,54.9
			c1.7-0.1,3.3,0.5,4.6,1.5h0.1v-6.5h4v19.6h-3.7v-1.4h-0.1c-1.3,1.3-3,1.9-4.8,1.8c-2,0.1-4-0.6-5.5-2.1c-1.5-1.4-2.3-3.4-2.2-5.5
			c0-2,0.8-4,2.2-5.4S146.3,54.9,148.3,54.9L148.3,54.9z M153,61.5c0-1.7-1.9-3.1-4.1-3.1c-1.1-0.1-2.2,0.3-3,1.1
			c-0.8,0.8-1.3,1.8-1.2,3c0,2.4,1.7,4,4.2,4c2.3,0,4.1-1.4,4.1-3.1V61.5z"/>
	</g>
</g>
</svg>
